/* XPM */
static char *bitcoin__[] = {
/* columns rows colors chars-per-pixel */
"64 64 225 2",
"   c #000000",
".  c #010101",
"X  c #020202",
"o  c #030303",
"O  c #040404",
"+  c #050505",
"@  c #060606",
"#  c #070707",
"$  c #080808",
"%  c #090909",
"&  c #0A0A0A",
"*  c #0B0B0B",
"=  c #0D0D0D",
"-  c #0E0E0E",
";  c #0F0F0F",
":  c #101010",
">  c #111111",
",  c #121212",
"<  c #131313",
"1  c #141414",
"2  c #151515",
"3  c #171717",
"4  c #181818",
"5  c #191919",
"6  c #1A1A1A",
"7  c #1B1B1B",
"8  c #1C1C1C",
"9  c #1D1D1D",
"0  c #1E1E1E",
"q  c #1F1F1F",
"w  c #202020",
"e  c #222222",
"r  c #232323",
"t  c #242424",
"y  c #252525",
"u  c #262626",
"i  c #282828",
"p  c #292929",
"a  c #2A2A2A",
"s  c #2B2B2B",
"d  c #2C2C2C",
"f  c #2D2D2D",
"g  c #2E2E2E",
"h  c #303030",
"j  c #313131",
"k  c #343434",
"l  c #353535",
"z  c #363636",
"x  c #373737",
"c  c #383838",
"v  c #3A3A3A",
"b  c #3B3B3B",
"n  c #3C3C3C",
"m  c #3D3D3D",
"M  c #3E3E3E",
"N  c #3F3F3F",
"B  c #404040",
"V  c #434343",
"C  c #444444",
"Z  c #454545",
"A  c #464646",
"S  c #474747",
"D  c #484848",
"F  c #4A4A4A",
"G  c #4C4C4C",
"H  c #4D4D4D",
"J  c #4E4E4E",
"K  c #4F4F4F",
"L  c #505050",
"P  c #515151",
"I  c #525252",
"U  c #535353",
"Y  c #555555",
"T  c #565656",
"R  c #585858",
"E  c #595959",
"W  c #5B5B5B",
"Q  c #5C5C5C",
"!  c #5D5D5D",
"~  c #5E5E5E",
"^  c #5F5F5F",
"/  c #606060",
"(  c #616161",
")  c #626262",
"_  c #636363",
"`  c #646464",
"'  c #666666",
"]  c #676767",
"[  c #696969",
"{  c #6A6A6A",
"}  c #6B6B6B",
"|  c #6D6D6D",
" . c #6E6E6E",
".. c #6F6F6F",
"X. c #717171",
"o. c #727272",
"O. c #747474",
"+. c #757575",
"@. c #767676",
"#. c #777777",
"$. c #787878",
"%. c #797979",
"&. c #7B7B7B",
"*. c #7C7C7C",
"=. c #7D7D7D",
"-. c #7E7E7E",
";. c #7F7F7F",
":. c #808080",
">. c #818181",
",. c #828282",
"<. c #838383",
"1. c #848484",
"2. c #858585",
"3. c #868686",
"4. c #878787",
"5. c #898989",
"6. c #8A8A8A",
"7. c #8B8B8B",
"8. c #8C8C8C",
"9. c #8D8D8D",
"0. c #8E8E8E",
"q. c #8F8F8F",
"w. c #909090",
"e. c #919191",
"r. c #939393",
"t. c #949494",
"y. c #959595",
"u. c #969696",
"i. c #979797",
"p. c #989898",
"a. c #999999",
"s. c #9A9A9A",
"d. c #9B9B9B",
"f. c #9C9C9C",
"g. c #9D9D9D",
"h. c #9E9E9E",
"j. c #9F9F9F",
"k. c #A0A0A0",
"l. c #A1A1A1",
"z. c #A3A3A3",
"x. c #A4A4A4",
"c. c #A5A5A5",
"v. c #A6A6A6",
"b. c #A7A7A7",
"n. c #A8A8A8",
"m. c #A9A9A9",
"M. c #AAAAAA",
"N. c #ABABAB",
"B. c #ACACAC",
"V. c #ADADAD",
"C. c #AEAEAE",
"Z. c #AFAFAF",
"A. c #B0B0B0",
"S. c #B1B1B1",
"D. c #B2B2B2",
"F. c #B3B3B3",
"G. c #B4B4B4",
"H. c #B5B5B5",
"J. c #B7B7B7",
"K. c #B9B9B9",
"L. c #BABABA",
"P. c #BBBBBB",
"I. c #BCBCBC",
"U. c #BDBDBD",
"Y. c #BEBEBE",
"T. c #BFBFBF",
"R. c #C0C0C0",
"E. c #C1C1C1",
"W. c #C2C2C2",
"Q. c #C3C3C3",
"!. c #C4C4C4",
"~. c #C5C5C5",
"^. c #C6C6C6",
"/. c #C7C7C7",
"(. c #C8C8C8",
"). c #C9C9C9",
"_. c #CACACA",
"`. c #CBCBCB",
"'. c #CCCCCC",
"]. c #CDCDCD",
"[. c #CECECE",
"{. c #CFCFCF",
"}. c #D0D0D0",
"|. c #D1D1D1",
" X c #D2D2D2",
".X c #D3D3D3",
"XX c #D4D4D4",
"oX c #D5D5D5",
"OX c #D6D6D6",
"+X c #D7D7D7",
"@X c #D8D8D8",
"#X c #D9D9D9",
"$X c #DADADA",
"%X c #DBDBDB",
"&X c #DCDCDC",
"*X c #DEDEDE",
"=X c #E0E0E0",
"-X c #E1E1E1",
";X c #E2E2E2",
":X c #E3E3E3",
">X c #E4E4E4",
",X c #E5E5E5",
"<X c #E6E6E6",
"1X c #E7E7E7",
"2X c #E8E8E8",
"3X c #E9E9E9",
"4X c #EBEBEB",
"5X c #ECECEC",
"6X c #EEEEEE",
"7X c #EFEFEF",
"8X c #F0F0F0",
"9X c #F1F1F1",
"0X c #F2F2F2",
"qX c #F4F4F4",
"wX c #F5F5F5",
"eX c #F6F6F6",
"rX c #F7F7F7",
"tX c #F8F8F8",
"yX c #F9F9F9",
"uX c #FAFAFA",
"iX c #FBFBFB",
"pX c #FCFCFC",
"aX c #FDFDFD",
"sX c #FEFEFE",
"dX c #FFFFFF",
/* pixels */
"                                                                                                                                ",
"                                                                                                                                ",
"                                                                                                                                ",
"                                                                                                                                ",
"                                                                                                                                ",
"                                                                                                                                ",
"                      D s                                                                                                       ",
"                      m.dX)                                                                                                     ",
"                      2.dXdXL.g                                 .                                     .                         ",
"                      5 x.dXdXdX<.X                           *.;X&X&X&X&X&X&X&X&X&X&X&X&X&X&X&X&X&X&X;Xq.                      ",
"                          Z $XdXdX$XG                         j.dXdXdXdXdXdXdXdXdXdXdXdXdXdXdXdXdXdXdXdXJ.                      ",
"                      O.X.    ,.dXdXdXv.6                     q.dXdXdXdXdXdXdXdXdXdXdXdXdXdXdXdXdXdXdXdXc.                      ",
"                      M.dXZ.<   w L.dXdXeX..                  q.dXdXdXdXdXdXdXdXdXdXdXdXdXdXdXdXdXdXdXdXc.                      ",
"                      [ dXdXpX#.    ! 5XdXdX^.v               q.dXdXdXdXdXdXdXdXdXdXdXdXdXdXdXdXdXdXdXdXc.                      ",
"                        H >XdXdX{.v     p.dXdXdXw.&           q.dXdXdXdXdXdXdXdXdXdXdXdXdXdXdXdXdXdXdXdXc.                      ",
"                      >     q.dXdXdXa.    c [.dXdX,XE         q.dXdXdXdXdXdXdXdXdXdXdXdXdXdXdXdXdXdXdXdXc.                      ",
"                      u.R.+   g ~.dXdX6X~     @.pXdXdXF.u     t.dXdXdXdXdXdXdXdXdXdXdXdXdXdXdXdXdXdXdXdXc.                      ",
"                      g.dXqX[     } wXdXdXP.e   , C.dXdXdX&.  | dXdXdXdXdXdXdXdXdXdXdXdXdXdXdXdXdXdXdXdXc.                      ",
"                      A 6XdXdXQ.d   # c.dXdXdX<.    K -XdXdXH.Z.dXdXdXdXdXdXdXdXdXdXdXdXdXdXdXdXdXdXdXdXc.                      ",
"                          d.dXdXdX8.    Z #XdXdX$XA     7.dXdXdXdXdXdXdXdXdXdXdXdXdXdXdXdXdXdXdXdXdXdXdXc.                      ",
"                      A 1   n }.dXdX:XP     >.dXdXdXb.%   a W.dXdXdXdXdXdXdXdXdXdXdXdXdXdXdXdXdXdXdXdXdXc.                      ",
"                      m.dXQ     $.sXdXdXA.<   q L.dXdXeX|     ] 0XdXdXdXdXdXdXdXdXdXdXdXdXdXdXdXdXdXdXdXc.                      ",
"                      3.dXdXK.0   2 D.dXdXaX#.    ! 5XdXdX^.h   o l.dXdXdXdXdXdXdXdXdXdXdXdXdXdXdXdXdXdXc.                      ",
"                      7 v.dXdXdX:.    I :XdXdX{.v     p.dXdXdXw.    B OXdXdXdXdXdXdXdXdXdXdXdXdXdXdXdXdXc.                      ",
"                          D %XdXdX@XV     9.dXdXdXs.    c ].dXdX<XY     -.dXdXdXdXdXdXdXdXdXdXdXdXdXdXdXc.                      ",
"                      o. .    1.dXdXdXx.@   f ~.dXdX6X^     +.pXdXdXG.3   8 J.dXdXdXdXdXdXdXdXdXdXdXdXdXc.                      ",
"                      N.dXV.:   r I.dXdXqX[     } qXdXdXP.e   > C.dXdXdX&.    E 3XdXdXdXdXdXdXdXdXdXdXdXc.                      ",
"                      { dXdXuXO.    / 6XdXdX!.f   @ x.dXdXdX<.    J -XdXdX Xm     t.dXdXdXdXdXdXdXdXdXdXc.                      ",
"                        L 1XdXdX].x     s.dXdXdX9.    C @XdXdX%XS     6.dXdXdXh.    k _.dXdXdXdXdXdXdXdXc.                      ",
"                      :     e.dXdXdXu.    b }.dXdX:XP     :.dXdXdXb.%   p W.dXdX8X_     X.tXdXdXdXdXdXdXc.                      ",
"                      y.T.o   j /.dXdX5XQ     $.aXdXdXS.1   q L.dXdXeX .    ' 0XdXdXY.u   = M.dXdXdXdXdXc.                      ",
"                      4.dX9X'     | rXdXdXK.q   1 S.dXdXaX$.    Q 5XdXdX/.h   X l.dXdXdX4.    F *XdXdXdXc.                      ",
"                      ;.dXdXdXE.p   % b.dXdXdX:.    P :XdXdX{.b     i.dXdXdXe.    B oXdXdX*XF     4.dXdXv.                      ",
"                      :.dXdXdXdXdX6.    S %XdXdX@XV     9.dXdXdXs.    x '.dXdX<XT     -.dXdXdXN.-   y @X(.                      ",
"                      :.dXdXdXdXdXdX=XJ     <.dXdXdXx.#   f !.dXdX6X/     O.iXdXdXG.4   7 J.dXdXyXo.    l .                     ",
"                      :.dXdXdXdXdXdXdXdXV.>   e I.dXdXwX{     { qXdXdXI.r   : V.dXdXdX*.    R 2XdXdX_.g                         ",
"                      :.dXdXdXdXdXdXdXdXdXuX+.    ^ 6XdXdX!.f   @ x.dXdXdX1.    J =XdXdX.XM     r.dXdXdXX.                      ",
"                      :.dXdXdXdXdXdXdXdXdXdXdX].c     s.dXdXdX0.    V @XdXdX%XS     5.dXdXdXh.    k ).dXXX                      ",
"                      :.dXdXdXdXdXdXdXdXdXdXdXdXdXi.    v {.dXdX>XI     :.dXdXdXn.&   p E.dXdX8X`     9.b..                     ",
"                      :.dXdXdXdXdXdXdXdXdXdXdXdXdXdX5X!     $.aXdXdXS.2   0 K.dXdXrX .    ' 9XdXdXT.u     .                     ",
"                      :.dXdXdXdXdXdXdXdXdXdXdXdXdXdXdXdXL.q   1 A.dXdXaX%.    W 4XdXdX(.j   X k.dXdXdX2.O                       ",
"                      :.dXdXdXdXdXdXdXdXdXdXdXdXdXdXdXdXdXdX>.    L :XdXdX}.n     u.dXdXdXe.    N XXdXdXd.                      ",
"                      :.dXdXdXdXdXdXdXdXdXdXdXdXdXdXdXdXdXdXdX#XC     9.dXdXdXd.    x '.dXdX1XT     =.dX$X                      ",
"                      :.dXdXdXdXdXdXdXdXdXdXdXdXdXdXdXdXdXdXdXdXdXc.#   d !.dXdX6X(     O.uXdXdXH.5   x O..                     ",
"                      :.dXdXdXdXdXdXdXdXdXdXdXdXdXdXdXdXdXdXdXdXdXdXqX}     [ qXdXdXU.r   : B.dXdXdX*.    .                     ",
"                      :.dXdXdXdXdXdXdXdXdXdXdXdXdXdXdXdXdXdXdXdXdXdXdXdX~.g   + z.dXdXdX2.    G =XdXdX.Xb                       ",
"                      :.dXdXdXdXdXdXdXdXdXdXdXdXdXdXdXdXdXdXdXdXdXdXdXdXdXdX0.    V +XdXdX&XD     5.dXdXU.                      ",
"                      :.dXdXdXdXdXdXdXdXdXdXdXdXdXdXdXdXdXdXdXdXdXdXdXdXdXdXdX>XU     ;.dXdXdXn.*   i %X`.                      ",
"                      :.dXdXdXdXdXdXdXdXdXdXdXdXdXdXdXdXdXdXdXdXdXdXdXdXdXdXdXdXdXD.2   0 K.dXdXrX..    x .                     ",
"                      :.dXdXdXdXdXdXdXdXdXdXdXdXdXdXdXdXdXdXdXdXdXdXdXdXdXdXdXdXdXdXaX%.    W 4XdXdX(.s                         ",
"                      :.dXdXdXdXdXdXdXdXdXdXdXdXdXdXdXdXdXdXdXdXdXdXdXdXdXdXdXdXdXdXdXdX|.n     u.dXdXdX..                      ",
"                      4.dXdXdXdXdXdXdXdXdXdXdXdXdXdXdXdXdXdXdXdXdXdXdXdXdXdXdXdXdXdXdXdXdXdXf.    z `.dX.X                      ",
"                      :.dXsXsXsXsXsXsXsXsXsXsXsXsXsXsXsXsXsXsXsXsXsXsXsXsXsXsXsXsXsXsXpXdXdXdX7X(     q.n..                     ",
"                      ; w 9 9 9 9 9 9 9 9 9 9 9 9 9 9 9 9 9 9 9 9 9 9 9 9 9 9 9 9 9 9 7 0 O.uXdXdXU.t     .                     ",
"                                                                                            w C.dXdXdX,.o                       ",
"                                                                                                Y ;XdXdXs.                      ",
"                                                                                                  $ 0.dX+X                      ",
"                                                                                                      Y ,..                     ",
"                                                                                                          .                     ",
"                                                                                                                                ",
"                                                                                                                                ",
"                                                                                                                                ",
"                                                                                                                                ",
"                                                                                                                                "
};
