/* XPM */
static char *bitcoin__[] = {
/* columns rows colors chars-per-pixel */
"32 32 170 2",
"   c #000000",
".  c #080808",
"X  c #090909",
"o  c #0C0C0C",
"O  c #0D0D0D",
"+  c #101010",
"@  c #1A1A1A",
"#  c #1C1C1C",
"$  c #1D1D1D",
"%  c #1E1E1E",
"&  c #212121",
"*  c #222222",
"=  c #232323",
"-  c #242424",
";  c #252525",
":  c #262626",
">  c #272727",
",  c #282828",
"<  c #292929",
"1  c #2A2A2A",
"2  c #2B2B2B",
"3  c #2D2D2D",
"4  c #2E2E2E",
"5  c #2F2F2F",
"6  c #303030",
"7  c #313131",
"8  c #323232",
"9  c #333333",
"0  c #353535",
"q  c #363636",
"w  c #373737",
"e  c #383838",
"r  c #393939",
"t  c #3A3A3A",
"y  c #3E3E3E",
"u  c #3F3F3F",
"i  c #404040",
"p  c #424242",
"a  c #434343",
"s  c #444444",
"d  c #474747",
"f  c #484848",
"g  c #494949",
"h  c #4A4A4A",
"j  c #4B4B4B",
"k  c #4C4C4C",
"l  c #4D4D4D",
"z  c #4E4E4E",
"x  c #4F4F4F",
"c  c #505050",
"v  c #515151",
"b  c #555555",
"n  c #565656",
"m  c #575757",
"M  c #585858",
"N  c #595959",
"B  c #5A5A5A",
"V  c #5B5B5B",
"C  c #5E5E5E",
"Z  c #5F5F5F",
"A  c #606060",
"S  c #616161",
"D  c #636363",
"F  c #646464",
"G  c #656565",
"H  c #676767",
"J  c #686868",
"K  c #6A6A6A",
"L  c #6B6B6B",
"P  c #6C6C6C",
"I  c #6E6E6E",
"U  c #6F6F6F",
"Y  c #707070",
"T  c #717171",
"R  c #727272",
"E  c #737373",
"W  c #747474",
"Q  c #757575",
"!  c #767676",
"~  c #797979",
"^  c #7A7A7A",
"/  c #7B7B7B",
"(  c #7C7C7C",
")  c #7E7E7E",
"_  c #7F7F7F",
"`  c #818181",
"'  c #838383",
"]  c #878787",
"[  c #888888",
"{  c #898989",
"}  c #8B8B8B",
"|  c #8D8D8D",
" . c #8E8E8E",
".. c #8F8F8F",
"X. c #909090",
"o. c #929292",
"O. c #979797",
"+. c #999999",
"@. c #9A9A9A",
"#. c #9B9B9B",
"$. c #9C9C9C",
"%. c #9D9D9D",
"&. c #9E9E9E",
"*. c #9F9F9F",
"=. c #A1A1A1",
"-. c #A3A3A3",
";. c #A5A5A5",
":. c #A6A6A6",
">. c #A7A7A7",
",. c #A8A8A8",
"<. c #AAAAAA",
"1. c #AEAEAE",
"2. c #B0B0B0",
"3. c #B1B1B1",
"4. c #B2B2B2",
"5. c #B3B3B3",
"6. c #B4B4B4",
"7. c #B5B5B5",
"8. c #B7B7B7",
"9. c #B9B9B9",
"0. c #BEBEBE",
"q. c #BFBFBF",
"w. c #C0C0C0",
"e. c #C1C1C1",
"r. c #C3C3C3",
"t. c #C4C4C4",
"y. c #C5C5C5",
"u. c #C6C6C6",
"i. c #C8C8C8",
"p. c #C9C9C9",
"a. c #CACACA",
"s. c #CBCBCB",
"d. c #CCCCCC",
"f. c #CDCDCD",
"g. c #CECECE",
"h. c #CFCFCF",
"j. c #D0D0D0",
"k. c #D1D1D1",
"l. c #D5D5D5",
"z. c #D7D7D7",
"x. c #D8D8D8",
"c. c #DADADA",
"v. c #DBDBDB",
"b. c #DCDCDC",
"n. c #DFDFDF",
"m. c #E0E0E0",
"M. c #E2E2E2",
"N. c #E3E3E3",
"B. c #E4E4E4",
"V. c #E5E5E5",
"C. c #E6E6E6",
"Z. c #E8E8E8",
"A. c #E9E9E9",
"S. c #EAEAEA",
"D. c #EBEBEB",
"F. c #EDEDED",
"G. c #EFEFEF",
"H. c #F0F0F0",
"J. c #F1F1F1",
"K. c #F2F2F2",
"L. c #F3F3F3",
"P. c #F4F4F4",
"I. c #F5F5F5",
"U. c #F6F6F6",
"Y. c #F7F7F7",
"T. c #F8F8F8",
"R. c #F9F9F9",
"E. c #FDFDFD",
"W. c #FEFEFE",
"Q. c #FFFFFF",
/* pixels */
"                                                                ",
"                                                                ",
"                                                                ",
"          z '                                                   ",
"          4 U.m.8             * ! W W W W W W W W ! >           ",
"          & 6  .Q.*.          M Q.Q.Q.Q.Q.Q.Q.Q.Q.Q.G           ",
"          x I.m 7 j.R.B       k Q.Q.Q.Q.Q.Q.Q.Q.Q.Q.n           ",
"          X z V.q.< D W.i.#   i Q.Q.Q.Q.Q.Q.Q.Q.Q.Q.n           ",
"          M 1.= ` T./ & >.Q.P 0 E.Q.Q.Q.Q.Q.Q.Q.Q.Q.n           ",
"          O -.I.C 2 y.m.u i b.Q.Q.Q.Q.Q.Q.Q.Q.Q.Q.Q.n           ",
"          p M y b.a.4 N J.;.- Y E.Q.Q.Q.Q.Q.Q.Q.Q.Q.n           ",
"          4 K.3.; Q Y.[ & %.P.S # @.Q.Q.Q.Q.Q.Q.Q.Q.n           ",
"          & 6 o.U.P > 9.Z.g t c.d.4 t v.Q.Q.Q.Q.Q.Q.n           ",
"          c I.n 9 k.l.w x D.4.; E Y.} @ T Q.Q.Q.Q.Q.n           ",
"          . x C.0.< H I.O.& ..U.U > 8.A.j ; 6.Q.Q.Q.n           ",
"          v ] # ' T.^ = <.G.b 7 h.z.e l S.7.= l J.Q.M           ",
"          f Q.N.u 1 u.n.y a B.w.< F I.+.& | Y.T $ #.J           ",
"          a Q.Q.Q.=.% V K.-.& ` T.( * ,.H.n 6 g.c.s O           ",
"          s Q.Q.Q.Q.Q.A # &.L.Z 2 t.m.u p M.e.< D W.B           ",
"          s Q.Q.Q.Q.Q.Q.p.5 t v.s.4 N J.:.& _ T.) q 6           ",
"          s Q.Q.Q.Q.Q.Q.Q.Q.] @ W Y.{ & $.P.S 1 r.C.3           ",
"          s Q.Q.Q.Q.Q.Q.Q.Q.Q.F.h - 9.Z.h t c.f.7 K M           ",
"          s Q.Q.Q.Q.Q.Q.Q.Q.Q.Q.Q.2.- z D.5.: R T.X.o           ",
"          s Q.Q.Q.Q.Q.Q.Q.Q.Q.Q.Q.Q.Q.I @ ..Y.U , r.L           ",
"          s Q.Q.Q.Q.Q.Q.Q.Q.Q.Q.Q.Q.Q.Q.x.r 6 h.x.s +           ",
"          v Q.Q.Q.Q.Q.Q.Q.Q.Q.Q.Q.Q.Q.Q.Q.Q.e.> G W.N           ",
"          ; { { [ [ [ [ [ [ [ [ [ [ [ [ [ { y.Q.~ q 7           ",
"                                              d K.Z.1           ",
"                                                  -.J           ",
"                                                                ",
"                                                                ",
"                                                                "
};
