/* XPM */
static char *bitcoin__[] = {
/* columns rows colors chars-per-pixel */
"16 16 72 1",
"  c #000000",
". c #0B0B0B",
"X c #0F0F0F",
"o c #1B1B1B",
"O c #1D1D1D",
"+ c #1F1F1F",
"@ c #202020",
"# c #212121",
"$ c #222222",
"% c #232323",
"& c #242424",
"* c #272727",
"= c #282828",
"- c #292929",
"; c #2D2D2D",
": c #2E2E2E",
"> c #313131",
", c #343434",
"< c #353535",
"1 c #393939",
"2 c #3F3F3F",
"3 c #404040",
"4 c #484848",
"5 c #4C4C4C",
"6 c #616161",
"7 c #6F6F6F",
"8 c #707070",
"9 c #727272",
"0 c #737373",
"q c #747474",
"w c #767676",
"e c #7F7F7F",
"r c #808080",
"t c #838383",
"y c #888888",
"u c #898989",
"i c #8B8B8B",
"p c #8C8C8C",
"a c #8E8E8E",
"s c #8F8F8F",
"d c #919191",
"f c #929292",
"g c #939393",
"h c #949494",
"j c #959595",
"k c #969696",
"l c #979797",
"z c #989898",
"x c #999999",
"c c #9A9A9A",
"v c #9B9B9B",
"b c #9C9C9C",
"n c #9D9D9D",
"m c #9E9E9E",
"M c #A9A9A9",
"N c #ABABAB",
"B c #AEAEAE",
"V c #AFAFAF",
"C c #B4B4B4",
"Z c #B6B6B6",
"A c #B7B7B7",
"S c #B9B9B9",
"D c #C3C3C3",
"F c #C4C4C4",
"G c #C7C7C7",
"H c #D7D7D7",
"J c #DADADA",
"K c #E2E2E2",
"L c #E8E8E8",
"P c #F5F5F5",
"I c #F9F9F9",
"U c #FFFFFF",
/* pixels */
"                ",
"  o>            ",
"  ,C0X +AZZZZ%  ",
"  #pDn1oUUUUU1  ",
"  OhlxmiUUUUU>  ",
"  OvkgpbBIUUU>  ",
"  +bhjal7iGUU;  ",
"  :utzsggu8ML3  ",
"  <KM7pfhaxed,  ",
"  &UUFy8lakgm#  ",
"  =UUUPNwrkkn@  ",
"  -UUUUUJc9xl$  ",
"  ;UUUUUUUHVu*  ",
"  .44444456qS1  ",
"            2@  ",
"                "
};
